<mxfile host="65bd71144e" scale="3" border="0">
    <diagram id="R2lEEEUBdFMjLlhIrx00" name="Page-1">
        <mxGraphModel dx="570" dy="486" grid="1" gridSize="10" guides="1" tooltips="1" connect="1" arrows="1" fold="1" page="1" pageScale="1" pageWidth="827" pageHeight="1169" background="#FFFFFF" math="0" shadow="0" extFonts="Permanent Marker^https://fonts.googleapis.com/css?family=Permanent+Marker">
            <root>
                <mxCell id="0"/>
                <mxCell id="1" parent="0"/>
                <mxCell id="RJFD0Sm-HPqhG27CNGZm-1" value="&lt;div&gt;Supervisore&lt;/div&gt;" style="shape=umlActor;verticalLabelPosition=bottom;verticalAlign=top;html=1;outlineConnect=0;" parent="1" vertex="1">
                    <mxGeometry x="210" y="50" width="30" height="60" as="geometry"/>
                </mxCell>
                <mxCell id="RJFD0Sm-HPqhG27CNGZm-21" value="" style="rounded=0;jumpStyle=none;orthogonalLoop=1;jettySize=auto;html=1;strokeWidth=1;endArrow=none;endFill=0;" parent="1" source="RJFD0Sm-HPqhG27CNGZm-4" edge="1">
                    <mxGeometry relative="1" as="geometry">
                        <mxPoint x="240" y="80" as="targetPoint"/>
                    </mxGeometry>
                </mxCell>
                <mxCell id="RJFD0Sm-HPqhG27CNGZm-4" value="Visualizzazione&lt;br&gt;interventi" style="ellipse;whiteSpace=wrap;html=1;" parent="1" vertex="1">
                    <mxGeometry x="320" y="50" width="90" height="60" as="geometry"/>
                </mxCell>
                <mxCell id="RJFD0Sm-HPqhG27CNGZm-9" style="rounded=0;orthogonalLoop=1;jettySize=auto;html=1;exitX=0.5;exitY=0;exitDx=0;exitDy=0;endArrow=open;endFill=0;dashed=1;strokeWidth=1;jumpStyle=none;entryX=0.5;entryY=1;entryDx=0;entryDy=0;" parent="1" source="RJFD0Sm-HPqhG27CNGZm-5" target="RJFD0Sm-HPqhG27CNGZm-4" edge="1">
                    <mxGeometry relative="1" as="geometry">
                        <mxPoint x="390" y="140" as="targetPoint"/>
                    </mxGeometry>
                </mxCell>
                <mxCell id="RJFD0Sm-HPqhG27CNGZm-10" value="&amp;lt;extend&amp;gt;" style="edgeLabel;html=1;align=center;verticalAlign=middle;resizable=0;points=[];" parent="RJFD0Sm-HPqhG27CNGZm-9" vertex="1" connectable="0">
                    <mxGeometry x="0.1093" y="1" relative="1" as="geometry">
                        <mxPoint as="offset"/>
                    </mxGeometry>
                </mxCell>
                <mxCell id="RJFD0Sm-HPqhG27CNGZm-22" style="rounded=0;jumpStyle=none;orthogonalLoop=1;jettySize=auto;html=1;exitX=1;exitY=0;exitDx=0;exitDy=0;strokeWidth=1;endArrow=none;endFill=0;entryX=0.5;entryY=0.5;entryDx=0;entryDy=0;entryPerimeter=0;" parent="1" source="RJFD0Sm-HPqhG27CNGZm-5" target="RJFD0Sm-HPqhG27CNGZm-6" edge="1">
                    <mxGeometry relative="1" as="geometry">
                        <mxPoint x="570" y="100" as="targetPoint"/>
                    </mxGeometry>
                </mxCell>
                <mxCell id="RJFD0Sm-HPqhG27CNGZm-5" value="Assegnazione intervento" style="ellipse;whiteSpace=wrap;html=1;" parent="1" vertex="1">
                    <mxGeometry x="310" y="190" width="110" height="60" as="geometry"/>
                </mxCell>
                <mxCell id="RJFD0Sm-HPqhG27CNGZm-8" style="rounded=0;orthogonalLoop=1;jettySize=auto;html=1;endArrow=none;endFill=0;entryX=1;entryY=0.5;entryDx=0;entryDy=0;exitX=0.5;exitY=0.5;exitDx=0;exitDy=0;exitPerimeter=0;" parent="1" source="RJFD0Sm-HPqhG27CNGZm-6" target="RJFD0Sm-HPqhG27CNGZm-4" edge="1">
                    <mxGeometry relative="1" as="geometry">
                        <mxPoint x="440" y="85" as="targetPoint"/>
                        <mxPoint x="560" y="80" as="sourcePoint"/>
                    </mxGeometry>
                </mxCell>
                <mxCell id="RJFD0Sm-HPqhG27CNGZm-6" value="Ardeeno DataLayer" style="shape=umlActor;verticalLabelPosition=bottom;verticalAlign=top;html=1;outlineConnect=0;" parent="1" vertex="1">
                    <mxGeometry x="570" y="50" width="30" height="60" as="geometry"/>
                </mxCell>
                <mxCell id="3" style="edgeStyle=none;html=1;exitX=0.5;exitY=0.5;exitDx=0;exitDy=0;exitPerimeter=0;entryX=1;entryY=0.5;entryDx=0;entryDy=0;endArrow=none;endFill=0;" edge="1" parent="1" source="2" target="RJFD0Sm-HPqhG27CNGZm-5">
                    <mxGeometry relative="1" as="geometry"/>
                </mxCell>
                <mxCell id="2" value="Gmail" style="shape=umlActor;verticalLabelPosition=bottom;verticalAlign=top;html=1;outlineConnect=0;" vertex="1" parent="1">
                    <mxGeometry x="570" y="190" width="30" height="60" as="geometry"/>
                </mxCell>
            </root>
        </mxGraphModel>
    </diagram>
</mxfile>